<?xml version="1.0" encoding="utf-8"?>
<!-- Generator: Adobe Illustrator 16.0.0, SVG Export Plug-In . SVG Version: 6.00 Build 0)  -->
<!DOCTYPE svg PUBLIC "-//W3C//DTD SVG 1.1//EN" "http://www.w3.org/Graphics/SVG/1.1/DTD/svg11.dtd">
<svg version="1.1" id="Layer_1" xmlns="http://www.w3.org/2000/svg" xmlns:xlink="http://www.w3.org/1999/xlink" x="0px" y="0px"
	 width="595.28px" height="841.89px" viewBox="0 0 595.28 841.89" enable-background="new 0 0 595.28 841.89" xml:space="preserve">
<path fill="none" stroke="#000000" stroke-width="3" stroke-miterlimit="10" d="M222.57,137.885v199.84c0,0,0,54.401-54.4,54.401
	c0,0-60.479,4.441-61.589-51.069"/>
<circle fill="#27AAE1" cx="165.147" cy="337.859" r="38.882"/>
<circle fill="#EE2A7B" cx="290.714" cy="337.859" r="38.882"/>
<circle fill="#FFF200" cx="417.332" cy="337.859" r="38.882"/>
<line fill="none" x1="359.547" y1="333.42" x2="359.547" y2="291.232"/>
<g>
	<polyline fill="#FFFFFF" stroke="#000000" stroke-width="3" stroke-miterlimit="10" points="366.042,272.211 366.042,309.399 
		366.042,520.488 	"/>
	<path fill="none" stroke="#000000" stroke-width="3" stroke-miterlimit="10" d="M366.626,319.74c0,0,10.625-40.632,51.492-39.665
		c0,0,41.68-2.901,50.67,37.731c0,0,8.992,32.894-7.354,58.048"/>
</g>
<rect x="-31.55" y="408.875" fill="none" width="383.59" height="75.284"/>
<text transform="matrix(1 0 0 1 118.9834 429.0449)"><tspan x="0" y="0" font-family="'FuturaBT-Book'" font-size="26.6453" letter-spacing="2">JEYAKAR OFFSET </tspan><tspan x="105.592" y="31.975" font-family="'FuturaBT-Book'" font-size="26.6453" letter-spacing="2">PRINTERS </tspan></text>
</svg>
